# xmcd
#
# Track frame offsets: 
#        150
#        13525
#        26662
#        45427
#        62788
#        78181
#        90258
#        120747
#        146702
#        158610
#        174150
#
# Disc length: 2551 seconds
#
# Revision: 1
# Processed by: cddbd v1.5.2PL0 Copyright (c) Steve Scherf et al.
# Submitted via: ExactAudioCopyFreeDBPlugin 1.0
#
DISCID=7809f50b
DTITLE=Black Joe Lewis - Electric Slave
DYEAR=2013
DGENRE=Blues
TTITLE0=Skulldiggin'
TTITLE1=Young Girls
TTITLE2=Dar Es Salaam
TTITLE3=My Blood Ain't Runnin' Right
TTITLE4=Guilty
TTITLE5=Come to My Party
TTITLE6=Vampire
TTITLE7=Make Dat Money
TTITLE8=The Hipster
TTITLE9=Golem
TTITLE10=Mamma's Queen
EXTD=
EXTT0=
EXTT1=
EXTT2=
EXTT3=
EXTT4=
EXTT5=
EXTT6=
EXTT7=
EXTT8=
EXTT9=
EXTT10=
PLAYORDER=
